<svg width="400" height="300" viewBox="0 0 400 300" fill="none" xmlns="http://www.w3.org/2000/svg">
<mask id="mask0_803_2" style="mask-type:luminance" maskUnits="userSpaceOnUse" x="0" y="0" width="400" height="300">
<rect width="400" height="300" fill="white"/>
</mask>
<g mask="url(#mask0_803_2)">
<ellipse cx="170.327" cy="209.748" rx="50.0642" ry="50.2556" fill="#ECEDEE"/>
<ellipse cx="170.327" cy="209.748" rx="27.3078" ry="27.4121" fill="#ECEDEE"/>
<ellipse cx="170.327" cy="209.748" rx="50.0642" ry="50.2556" stroke="#3D3D3C" stroke-width="0.8" stroke-linecap="round" stroke-linejoin="round"/>
<ellipse cx="170.327" cy="209.748" rx="27.3078" ry="27.4121" stroke="#3D3D3C" stroke-width="0.8" stroke-linecap="round" stroke-linejoin="round"/>
<path d="M185.653 218.8C185.338 221.755 183.729 224.419 181.26 226.074" stroke="#3D3D3C" stroke-width="0.8" stroke-linecap="round" stroke-linejoin="round"/>
<ellipse cx="279.754" cy="63.8925" rx="43.2979" ry="43.4633" fill="#3782FF"/>
<mask id="mask1_803_2" style="mask-type:luminance" maskUnits="userSpaceOnUse" x="236" y="20" width="88" height="88">
<ellipse cx="279.754" cy="63.8925" rx="43.2979" ry="43.4633" fill="white"/>
</mask>
<g mask="url(#mask1_803_2)">
<path d="M160.627 100.485H398.882" stroke="white" stroke-width="0.5" stroke-linecap="round" stroke-linejoin="round"/>
<path d="M160.627 91.3371H398.882" stroke="white" stroke-width="0.5" stroke-linecap="round" stroke-linejoin="round"/>
<path d="M160.627 82.1889H398.882" stroke="white" stroke-width="0.5" stroke-linecap="round" stroke-linejoin="round"/>
<path d="M160.627 73.0407H398.882" stroke="white" stroke-width="0.5" stroke-linecap="round" stroke-linejoin="round"/>
<path d="M160.627 63.8925H398.882" stroke="white" stroke-width="0.5" stroke-linecap="round" stroke-linejoin="round"/>
<path d="M160.627 54.7443H398.882" stroke="white" stroke-width="0.5" stroke-linecap="round" stroke-linejoin="round"/>
<path d="M160.627 45.5961H398.882" stroke="white" stroke-width="0.5" stroke-linecap="round" stroke-linejoin="round"/>
<path d="M160.627 36.4478H398.882" stroke="white" stroke-width="0.5" stroke-linecap="round" stroke-linejoin="round"/>
<path d="M160.627 27.2996H398.882" stroke="white" stroke-width="0.5" stroke-linecap="round" stroke-linejoin="round"/>
</g>
<ellipse cx="279.754" cy="63.8925" rx="43.2979" ry="43.4633" stroke="#3D3D3C" stroke-width="0.8" stroke-linecap="round" stroke-linejoin="round"/>
<path d="M302.231 82.4432C302.015 85.3064 300.519 87.9194 298.159 89.5545" stroke="#3D3D3C" stroke-width="0.8" stroke-linecap="round" stroke-linejoin="round"/>
<path d="M258.345 62.0652C255.704 63.6824 253.037 65.9667 250.906 67.9883C256.015 73.9591 261.451 82.496 264.096 90.7982C264.096 90.7982 241.296 103.453 214.394 106.246C192.418 108.527 201.159 116.823 203.477 118.808C205.795 120.793 227.69 135.57 227.69 135.57C227.69 135.57 284.102 108.442 287.966 93.8858C290.664 83.7182 270.493 70.4315 258.345 62.0652Z" fill="#4F4F5B"/>
<mask id="mask2_803_2" style="mask-type:luminance" maskUnits="userSpaceOnUse" x="199" y="62" width="90" height="74">
<path fill-rule="evenodd" clip-rule="evenodd" d="M258.345 62.0652C255.704 63.6824 253.037 65.9667 250.906 67.9883C256.015 73.9591 261.451 82.496 264.096 90.7982C264.096 90.7982 241.296 103.453 214.394 106.246C192.418 108.527 201.159 116.823 203.477 118.808C205.795 120.793 227.69 135.57 227.69 135.57C227.69 135.57 284.102 108.442 287.966 93.8858C290.664 83.7182 270.493 70.4315 258.345 62.0652Z" fill="white"/>
</mask>
<g mask="url(#mask2_803_2)">
<path d="M255.907 92.4212L264.096 90.7982L271.569 87.6759L254.442 86.349L255.907 92.4212V92.4212Z" fill="#242635"/>
<path opacity="0.51" d="M274.098 113.753C257.718 120.849 256.338 113.234 244.786 118.599C233.234 123.965 239.441 105.791 230.993 106.311C222.544 106.83 213.233 119.119 213.923 126.215C214.613 133.311 219.441 142.445 219.441 142.445L239.617 145.946L253.062 142.445L274.098 113.753Z" fill="#242635"/>
</g>
<path fill-rule="evenodd" clip-rule="evenodd" d="M258.345 62.0652C255.704 63.6824 253.037 65.9667 250.906 67.9883C256.015 73.9591 261.451 82.496 264.096 90.7982C264.096 90.7982 241.296 103.453 214.394 106.246C192.418 108.527 201.159 116.823 203.477 118.808C205.795 120.793 227.69 135.57 227.69 135.57C227.69 135.57 284.102 108.442 287.966 93.8858C290.664 83.7182 270.493 70.4315 258.345 62.0652Z" stroke="#3D3D3C" stroke-width="0.8" stroke-linecap="round" stroke-linejoin="round"/>
<path d="M258.346 62.0652C253.102 58.4539 249.352 55.7582 249.585 54.6277C250.358 50.8784 254.651 32.8667 248.126 34.4841C243.833 35.2193 236.277 59.1858 241.257 60.068C243.396 60.447 247.058 63.4905 250.906 67.9883C253.037 65.9666 255.704 63.6824 258.346 62.0652Z" fill="#F5F6F7"/>
<mask id="mask3_803_2" style="mask-type:luminance" maskUnits="userSpaceOnUse" x="239" y="34" width="20" height="34">
<path fill-rule="evenodd" clip-rule="evenodd" d="M258.346 62.0652C253.102 58.4539 249.352 55.7582 249.585 54.6277C250.358 50.8784 254.651 32.8667 248.126 34.4841C243.833 35.2193 236.277 59.1858 241.257 60.068C243.396 60.447 247.058 63.4905 250.906 67.9883C253.037 65.9666 255.704 63.6824 258.346 62.0652Z" fill="white"/>
</mask>
<g mask="url(#mask3_803_2)">
<path d="M246.065 69.5314C249.105 63.2952 255.029 62.9582 258.346 62.0652C261.662 61.1722 258.346 67.5412 258.346 67.5412L248.982 70.9247" fill="#CFCFD0"/>
</g>
<path fill-rule="evenodd" clip-rule="evenodd" d="M258.346 62.0652C253.102 58.4539 249.352 55.7582 249.585 54.6277C250.358 50.8784 254.651 32.8667 248.126 34.4841C243.833 35.2193 236.277 59.1858 241.257 60.068C243.396 60.447 247.058 63.4905 250.906 67.9883C253.037 65.9666 255.704 63.6824 258.346 62.0652Z" stroke="#3D3D3C" stroke-width="0.8" stroke-linecap="round" stroke-linejoin="round"/>
<path d="M148.027 54.4265C153.866 50.3687 164.982 52.8485 161.726 62.7674C158.47 72.6862 171.382 77.3075 168.912 83.5069C166.442 89.7062 153.978 97.4835 151.171 88.4663C148.364 79.4491 158.734 79.3364 152.333 80.8017C145.933 82.267 147.129 61.1894 147.129 61.1894L148.027 54.4265Z" fill="#4F4F5B" stroke="#3D3D3C" stroke-width="0.8" stroke-linecap="round" stroke-linejoin="round"/>
<path d="M148.252 60.9639C146.567 69.8684 150.222 77.1775 153.927 79.2063L163.659 96.2232L134.777 95.7928C134.777 95.7928 144.771 87.0929 135.9 77.5226C127.03 67.9522 141.589 59.3859 141.589 59.3859L148.252 60.9639Z" fill="#F5F6F7"/>
<mask id="mask4_803_2" style="mask-type:luminance" maskUnits="userSpaceOnUse" x="133" y="59" width="31" height="38">
<path fill-rule="evenodd" clip-rule="evenodd" d="M148.252 60.9639C146.567 69.8684 150.222 77.1775 153.927 79.2063L163.659 96.2232L134.777 95.7928C134.777 95.7928 144.771 87.0929 135.9 77.5226C127.03 67.9522 141.589 59.3859 141.589 59.3859L148.252 60.9639Z" fill="white"/>
</mask>
<g mask="url(#mask4_803_2)">
<ellipse cx="131.93" cy="73.3783" rx="9.65983" ry="12.3186" fill="#CFCFD0"/>
</g>
<path fill-rule="evenodd" clip-rule="evenodd" d="M148.252 60.9639C146.567 69.8684 150.222 77.1775 153.927 79.2063L163.659 96.2232L134.777 95.7928C134.777 95.7928 144.771 87.0929 135.9 77.5226C127.03 67.9522 141.589 59.3859 141.589 59.3859L148.252 60.9639Z" stroke="#3D3D3C" stroke-width="0.8" stroke-linecap="round" stroke-linejoin="round"/>
<path d="M45.0271 79.2826C38.8205 77.5639 43.957 92.1729 63.8608 88.7355C63.8608 88.7355 93.3954 97.1141 97.8898 97.329C102.384 97.5438 146.044 116.449 146.044 116.449C146.044 116.449 146.9 90.669 142.834 91.3135C138.767 91.958 71.7795 84.4387 67.0711 84.0091C62.3627 83.5794 45.0271 79.2826 45.0271 79.2826Z" fill="#F5F6F7"/>
<mask id="mask5_803_2" style="mask-type:luminance" maskUnits="userSpaceOnUse" x="42" y="79" width="105" height="38">
<path fill-rule="evenodd" clip-rule="evenodd" d="M45.0271 79.2826C38.8205 77.5639 43.957 92.1729 63.8608 88.7355C63.8608 88.7355 93.3954 97.1141 97.8898 97.329C102.384 97.5438 146.044 116.449 146.044 116.449C146.044 116.449 146.9 90.669 142.834 91.3135C138.767 91.958 71.7795 84.4387 67.0711 84.0091C62.3627 83.5794 45.0271 79.2826 45.0271 79.2826Z" fill="white"/>
</mask>
<g mask="url(#mask5_803_2)">
<path d="M88.4016 103.436C90.3264 103.317 92.2871 103.218 94.2679 103.146C115.984 102.35 140.122 104.658 146.044 116.45C152.506 129.317 121.851 128.119 120.472 127.773C119.092 127.426 88.4016 103.436 88.4016 103.436Z" fill="#CFCFD0"/>
</g>
<path fill-rule="evenodd" clip-rule="evenodd" d="M45.0271 79.2826C38.8205 77.5639 43.957 92.1729 63.8608 88.7355C63.8608 88.7355 93.3954 97.1141 97.8898 97.329C102.384 97.5438 146.044 116.449 146.044 116.449C146.044 116.449 146.9 90.669 142.834 91.3135C138.767 91.958 71.7795 84.4387 67.0711 84.0091C62.3627 83.5794 45.0271 79.2826 45.0271 79.2826Z" stroke="#3D3D3C" stroke-width="0.8" stroke-linecap="round" stroke-linejoin="round"/>
<path d="M156.21 77.6407C166.642 70.8383 230.438 55.804 237.822 53.3044C245.206 50.8049 250.873 49.7756 252.247 53.3044C253.621 56.8333 256.999 59.5104 254.365 59.2746C251.732 59.0388 241.943 59.4799 238.165 59.0388C238.165 59.0388 208.886 72.4924 200.644 76.0212C192.401 79.55 174.37 82.6377 176.43 97.8558C178.491 113.074 157.369 92.342 157.369 92.342L156.21 77.6407Z" fill="#F5F6F7"/>
<mask id="mask6_803_2" style="mask-type:luminance" maskUnits="userSpaceOnUse" x="156" y="51" width="100" height="53">
<path fill-rule="evenodd" clip-rule="evenodd" d="M156.21 77.6407C166.642 70.8383 230.438 55.804 237.822 53.3044C245.206 50.8049 250.873 49.7756 252.247 53.3044C253.621 56.8333 256.999 59.5104 254.365 59.2746C251.732 59.0388 241.943 59.4799 238.165 59.0388C238.165 59.0388 208.886 72.4924 200.644 76.0212C192.401 79.55 174.37 82.6377 176.43 97.8558C178.491 113.074 157.369 92.342 157.369 92.342L156.21 77.6407Z" fill="white"/>
</mask>
<g mask="url(#mask6_803_2)">
<path d="M231.338 65.0845C207.026 69.445 198.591 77.594 183.232 81.3874C167.874 85.1808 174.098 102.923 185.988 103.436C197.878 103.949 205.776 85.8009 205.776 85.8009L231.338 65.0845Z" fill="#CFCFD0"/>
</g>
<path fill-rule="evenodd" clip-rule="evenodd" d="M156.21 77.6407C166.642 70.8383 230.438 55.804 237.822 53.3044C245.206 50.8049 250.873 49.7756 252.247 53.3044C253.621 56.8333 256.999 59.5104 254.365 59.2746C251.732 59.0388 241.943 59.4799 238.165 59.0388C238.165 59.0388 208.886 72.4924 200.644 76.0212C192.401 79.55 174.37 82.6377 176.43 97.8558C178.491 113.074 157.369 92.342 157.369 92.342L156.21 77.6407Z" stroke="#3D3D3C" stroke-width="0.8" stroke-linecap="round" stroke-linejoin="round"/>
<path d="M142.732 72.9789C140.225 76.9274 136.343 79.5264 133.562 79.5264C129.128 79.5264 125.534 72.9226 125.534 64.7764C125.534 56.6302 129.128 50.0264 133.562 50.0264C137.995 50.0264 145.225 56.6302 145.225 64.7764" fill="#F5F6F7"/>
<path d="M142.732 72.9789C140.225 76.9274 136.343 79.5264 133.562 79.5264C129.128 79.5264 125.534 72.9226 125.534 64.7764C125.534 56.6302 129.128 50.0264 133.562 50.0264C137.995 50.0264 145.225 56.6302 145.225 64.7764" stroke="#3D3D3C" stroke-width="0.8" stroke-linecap="round" stroke-linejoin="round"/>
<path d="M130.51 48.678C123.635 51.9535 121.704 57.9589 129.289 63.4897C134.145 67.0314 141.763 65.4725 147.04 65.6979C152.318 65.9233 154.09 56.4553 150.273 51.4959C146.455 46.5365 137.135 45.522 130.51 48.678Z" fill="#4F4F5B" stroke="#3D3D3C" stroke-width="0.8" stroke-linecap="round" stroke-linejoin="round"/>
<path d="M140.27 66.7677C140.244 65.6954 140.554 64.6418 141.158 63.7551C142.542 61.6758 145.04 60.913 146.738 62.0516C148.436 63.1901 148.691 65.7987 147.308 67.878C147.052 68.2631 146.749 68.6141 146.405 68.9225" fill="#F5F6F7"/>
<path d="M140.27 66.7677C140.244 65.6954 140.554 64.6418 141.158 63.7551C142.542 61.6758 145.04 60.913 146.738 62.0516C148.436 63.1901 148.691 65.7987 147.308 67.878C147.052 68.2631 146.749 68.6141 146.405 68.9225" stroke="#3D3D3C" stroke-width="0.8" stroke-linecap="round" stroke-linejoin="round"/>
<path d="M193.456 270.742C176.636 272.993 168.955 279.234 179.267 279.088C197.04 278.835 206.456 281.474 207.027 276.549C207.436 273.012 205.413 257.749 207.065 238.69C204.056 238.597 199.518 241.311 196.124 240.807C196.508 256.456 195.984 270.404 193.456 270.742Z" fill="#F5F6F7"/>
<mask id="mask7_803_2" style="mask-type:luminance" maskUnits="userSpaceOnUse" x="174" y="238" width="34" height="42">
<path fill-rule="evenodd" clip-rule="evenodd" d="M193.456 270.742C176.636 272.993 168.955 279.234 179.267 279.088C197.04 278.835 206.456 281.474 207.027 276.549C207.436 273.012 205.413 257.749 207.065 238.69C204.056 238.597 199.518 241.311 196.124 240.807C196.508 256.456 195.984 270.404 193.456 270.742Z" fill="white"/>
</mask>
<g mask="url(#mask7_803_2)">
<path d="M197.752 248.725C187.839 250.582 206.896 257.99 207.083 259.129C207.269 260.268 208.063 251.909 208.063 251.909L201.321 248.592" fill="#CFCFD0"/>
</g>
<path fill-rule="evenodd" clip-rule="evenodd" d="M193.456 270.742C176.636 272.993 168.955 279.234 179.267 279.088C197.04 278.835 206.456 281.474 207.027 276.549C207.436 273.012 205.413 257.749 207.065 238.69C204.056 238.597 199.518 241.311 196.124 240.807C196.508 256.456 195.984 270.404 193.456 270.742Z" stroke="#3D3D3C" stroke-width="0.8" stroke-linecap="round" stroke-linejoin="round"/>
<path d="M216.301 125.799L187.35 130.409C187.35 130.409 191.003 183.587 193.508 201.759C194.571 209.473 195.093 233.638 195.459 248.534C194.852 253.18 204.105 256.875 207.083 255.373C207.731 247.889 208.965 220.113 210.956 211.156C218.019 179.388 216.301 125.799 216.301 125.799Z" fill="#4F4F5B"/>
<mask id="mask8_803_2" style="mask-type:luminance" maskUnits="userSpaceOnUse" x="187" y="125" width="30" height="131">
<path fill-rule="evenodd" clip-rule="evenodd" d="M216.301 125.799L187.35 130.409C187.35 130.409 191.003 183.587 193.508 201.759C194.571 209.473 195.093 233.638 195.459 248.534C194.852 253.18 204.105 256.875 207.083 255.373C207.731 247.889 208.965 220.113 210.956 211.156C218.019 179.388 216.301 125.799 216.301 125.799Z" fill="white"/>
</mask>
<g mask="url(#mask8_803_2)">
<path opacity="0.51" d="M221.251 200.576C211.165 190.241 217.372 181.809 212.716 172.29C208.061 162.771 203.664 153.523 203.664 153.523L216.709 152.165L220.475 154.611L224.355 173.648L221.251 200.576Z" fill="#242635"/>
</g>
<path fill-rule="evenodd" clip-rule="evenodd" d="M216.301 125.799L187.35 130.409C187.35 130.409 191.003 183.587 193.508 201.759C194.571 209.473 195.093 233.638 195.459 248.534C194.852 253.18 204.105 256.875 207.083 255.373C207.731 247.889 208.965 220.113 210.956 211.156C218.019 179.388 216.301 125.799 216.301 125.799Z" stroke="#3D3D3C" stroke-width="0.8" stroke-linecap="round" stroke-linejoin="round"/>
<path d="M188.875 171.473C188.875 171.473 211.026 166.717 216.485 160.582C216.485 160.582 217.159 147.822 216.171 139.938L234.247 139.626C234.247 139.626 240.668 107.948 229.111 103.436C229.111 103.436 212.979 107.963 201.609 106.352C190.239 104.741 188.634 109.252 188.634 109.252L180.608 142.445C180.608 142.445 187.35 154.286 188.875 171.473Z" fill="#3782FF"/>
<path fill-rule="evenodd" clip-rule="evenodd" d="M188.875 171.473C188.875 171.473 211.026 166.717 216.485 160.582C216.485 160.582 217.159 147.822 216.171 139.938L234.247 139.626C234.247 139.626 240.668 107.948 229.111 103.436C229.111 103.436 212.979 107.963 201.609 106.352C190.239 104.741 188.634 109.252 188.634 109.252L180.608 142.445C180.608 142.445 187.35 154.286 188.875 171.473Z" stroke="#3D3D3C" stroke-width="0.8" stroke-linecap="round" stroke-linejoin="round"/>
<path d="M139.468 88.2498C137.711 89.28 135.291 90.1833 131.95 90.5142L143.075 113.193L164.905 116.461L170.327 96.7093" fill="#F5F6F7"/>
<path d="M139.468 88.2498C137.711 89.28 135.291 90.1833 131.95 90.5142L143.075 113.193L164.905 116.461L170.327 96.7093" stroke="#3D3D3C" stroke-width="0.8" stroke-linecap="round" stroke-linejoin="round"/>
<path d="M131.95 90.5142L137.269 89.1652C137.269 89.1652 138.232 110.541 149.79 104.741C161.347 98.9403 153.214 78.5307 153.214 78.5307L159.118 75.9923C159.118 75.9923 160.51 92.5831 176.463 93.1202C176.463 93.1202 175.422 109.43 196.397 105.047C196.397 105.047 205.875 115.858 193.508 128.051C181.141 140.244 180.608 142.445 180.608 142.445C180.608 142.445 142.294 140.142 131.95 90.5142Z" fill="#3782FF"/>
<mask id="mask9_803_2" style="mask-type:luminance" maskUnits="userSpaceOnUse" x="131" y="75" width="69" height="68">
<path fill-rule="evenodd" clip-rule="evenodd" d="M131.95 90.5142L137.269 89.1652C137.269 89.1652 138.232 110.541 149.79 104.741C161.347 98.9403 153.214 78.5307 153.214 78.5307L159.118 75.9923C159.118 75.9923 160.51 92.5831 176.463 93.1202C176.463 93.1202 175.422 109.43 196.397 105.047C196.397 105.047 205.875 115.858 193.508 128.051C181.141 140.244 180.608 142.445 180.608 142.445C180.608 142.445 142.294 140.142 131.95 90.5142Z" fill="white"/>
</mask>
<g mask="url(#mask9_803_2)">
<path d="M151.445 82.4715L164.579 82.2104L165.372 85.3949L165.075 86.4896L152.32 86.2905V83.2056" fill="#ECEDEE"/>
<path d="M151.445 82.4715L164.579 82.2104L165.372 85.3949L165.075 86.4896L152.32 86.2905V83.2056" stroke="#3D3D3C" stroke-width="0.8" stroke-linecap="round" stroke-linejoin="round"/>
<path d="M131.27 100.322L140.267 90.8682L140.571 95.8791L131.95 104.303L131.071 98.8176" fill="#ECEDEE"/>
<path d="M131.27 100.322L140.267 90.8682L140.571 95.8791L131.95 104.303L131.071 98.8176" stroke="#3D3D3C" stroke-width="0.8" stroke-linecap="round" stroke-linejoin="round"/>
<path d="M167.272 86.2337C166.859 113.359 195.014 113.757 202.747 110.572C210.479 107.388 201.917 89.8731 201.917 89.8731" fill="#ECEDEE"/>
<path d="M167.272 86.2337C166.859 113.359 195.014 113.757 202.747 110.572C210.479 107.388 201.917 89.8731 201.917 89.8731" stroke="#3D3D3C" stroke-width="0.8" stroke-linecap="round" stroke-linejoin="round"/>
<path d="M142.862 118.01C168.36 145.167 184.441 137.454 184.441 137.454L182.686 146.783L144.233 142.445" fill="#ECEDEE"/>
<path d="M142.862 118.01C168.36 145.167 184.441 137.454 184.441 137.454L182.686 146.783L144.233 142.445" stroke="#3D3D3C" stroke-width="0.8" stroke-linecap="round" stroke-linejoin="round"/>
</g>
<path fill-rule="evenodd" clip-rule="evenodd" d="M131.95 90.5142L137.269 89.1652C137.269 89.1652 138.232 110.541 149.79 104.741C161.347 98.9403 153.214 78.5307 153.214 78.5307L159.118 75.9923C159.118 75.9923 160.51 92.5831 176.463 93.1202C176.463 93.1202 175.422 109.43 196.397 105.047C196.397 105.047 205.875 115.858 193.508 128.051C181.141 140.244 180.608 142.445 180.608 142.445C180.608 142.445 142.294 140.142 131.95 90.5142Z" stroke="#3D3D3C" stroke-width="0.8" stroke-linecap="round" stroke-linejoin="round"/>
<path d="M198.555 136.527C198.555 136.527 209.864 140.048 218.284 139.902Z" fill="#ECEDEE"/>
<path d="M198.555 136.527C198.555 136.527 209.864 140.048 218.284 139.902" stroke="#3D3D3C" stroke-width="0.8" stroke-linecap="round" stroke-linejoin="round"/>
<path d="M129.312 68.4567V68.4567C128.81 68.4956 128.371 68.1203 128.332 67.6183L128.212 66.0708C128.174 65.5689 128.549 65.1305 129.051 65.0916V65.0916C129.553 65.0527 129.991 65.428 130.03 65.9299L130.15 67.4775C130.189 67.9794 129.814 68.4178 129.312 68.4567V68.4567Z" fill="#3D3D3C"/>
<path d="M128.008 62.1022C130.744 61.7672 131.443 62.8622 129.746 63.1835C128.05 63.5049 126.221 62.3211 128.008 62.1022Z" fill="#3D3D3C"/>
<path d="M126.737 67.0521C123.558 69.4632 125.066 72.9031 127.322 71.8833Z" fill="#F5F6F7"/>
<path d="M126.737 67.0521C123.558 69.4632 125.066 72.9031 127.322 71.8833" stroke="#3D3D3C" stroke-width="0.8" stroke-linecap="round" stroke-linejoin="round"/>
<ellipse opacity="0.27" cx="135.435" cy="69.478" rx="3.06124" ry="3.07294" fill="#CFCFD0"/>
<path d="M132.419 72.089C131.428 73.9754 129.572 73.9354 129.572 73.9354Z" fill="white"/>
<path d="M132.419 72.089C131.428 73.9754 129.572 73.9354 129.572 73.9354" stroke="#3D3D3C" stroke-width="0.8" stroke-linecap="round" stroke-linejoin="round"/>
<path d="M143.526 64.054C143.671 63.5552 144.318 63.2797 144.776 63.5217C145.234 63.7638 145.374 64.455 145.046 64.8572" stroke="#3D3D3C" stroke-width="0.8" stroke-linecap="round" stroke-linejoin="round"/>
<path d="M137.053 54.0473C137.565 54.9595 138.29 55.734 139.167 56.3042" stroke="#3D3D3C" stroke-width="0.8" stroke-linecap="round" stroke-linejoin="round"/>
<path d="M94.4871 91.0676C94.6016 92.1414 95.1861 93.1093 96.0831 93.7107" stroke="#3D3D3C" stroke-width="0.8" stroke-linecap="round" stroke-linejoin="round"/>
<path d="M159.519 123.463C165.084 124.616 170.76 125.145 176.443 125.04" stroke="#3D3D3C" stroke-width="0.8" stroke-linecap="round" stroke-linejoin="round"/>
<path d="M252.544 107.648L259.966 109.699" stroke="#3D3D3C" stroke-width="0.8" stroke-linecap="round" stroke-linejoin="round"/>
<path d="M197.078 237.998L200.245 238.557" stroke="#3D3D3C" stroke-width="0.8" stroke-linecap="round" stroke-linejoin="round"/>
<path d="M291.347 254.06C291.347 254.06 289.421 176.223 310.477 158.688" stroke="#3D3D3C" stroke-width="0.8" stroke-linecap="round" stroke-linejoin="round"/>
<ellipse cx="311.052" cy="152.277" rx="18.9987" ry="19.0713" fill="#CFCFD0"/>
<mask id="mask10_803_2" style="mask-type:luminance" maskUnits="userSpaceOnUse" x="292" y="133" width="39" height="39">
<ellipse cx="311.052" cy="152.277" rx="18.9987" ry="19.0713" fill="white"/>
</mask>
<g mask="url(#mask10_803_2)">
<ellipse cx="315.323" cy="150.129" rx="18.9987" ry="19.0713" fill="#ECEDEE"/>
</g>
<ellipse cx="311.052" cy="152.277" rx="18.9987" ry="19.0713" stroke="#3D3D3C" stroke-width="0.8" stroke-linecap="round" stroke-linejoin="round"/>
<path d="M311.745 142.872V142.872C310.785 142.115 309.41 142.987 309.678 144.182V144.182C309.759 144.541 309.685 144.918 309.473 145.219C309.262 145.519 308.932 145.717 308.567 145.762V145.762C307.355 145.908 306.997 147.501 308.029 148.156V148.156C308.339 148.353 308.552 148.673 308.614 149.036C308.676 149.399 308.582 149.771 308.356 150.061V150.061C307.601 151.025 308.47 152.405 309.661 152.136V152.136C310.02 152.056 310.396 152.131 310.696 152.344C310.996 152.556 311.192 152.886 311.235 153.251V153.251C311.38 154.468 312.967 154.828 313.619 153.792V153.792C313.815 153.481 314.133 153.267 314.495 153.205C314.857 153.142 315.229 153.236 315.517 153.464V153.464C316.478 154.221 317.853 153.349 317.585 152.153V152.153C317.503 151.794 317.578 151.418 317.79 151.117C318.001 150.816 318.33 150.619 318.696 150.574V150.574C319.908 150.428 320.266 148.835 319.234 148.18V148.18C318.924 147.982 318.711 147.662 318.649 147.3C318.587 146.937 318.68 146.565 318.907 146.275V146.275C319.661 145.311 318.793 143.93 317.602 144.199V144.199C317.243 144.28 316.867 144.205 316.567 143.992C316.267 143.779 316.071 143.449 316.028 143.084V143.084C315.883 141.867 314.296 141.508 313.644 142.544V142.544C313.448 142.855 313.13 143.068 312.768 143.131C312.406 143.194 312.034 143.099 311.745 142.872Z" fill="white" stroke="#3D3D3C" stroke-width="0.8" stroke-linecap="round" stroke-linejoin="round"/>
<ellipse cx="289.003" cy="176.508" rx="4.31557" ry="11.7902" transform="rotate(-51.7583 289.003 176.508)" fill="#3782FF" stroke="#3D3D3C" stroke-width="0.8" stroke-linecap="round" stroke-linejoin="round"/>
<path d="M287.099 251.035C287.099 251.035 290.933 210.157 265.417 199.979" stroke="#3D3D3C" stroke-width="0.8" stroke-linecap="round" stroke-linejoin="round"/>
<ellipse cx="266.953" cy="194.038" rx="19.5806" ry="19.6554" fill="#CFCFD0"/>
<mask id="mask11_803_2" style="mask-type:luminance" maskUnits="userSpaceOnUse" x="247" y="174" width="40" height="40">
<ellipse cx="266.953" cy="194.038" rx="19.5806" ry="19.6554" fill="white"/>
</mask>
<g mask="url(#mask11_803_2)">
<ellipse cx="263.569" cy="192.578" rx="19.5806" ry="19.6554" fill="#ECEDEE"/>
</g>
<ellipse cx="266.953" cy="194.038" rx="19.5806" ry="19.6554" stroke="#3D3D3C" stroke-width="0.8" stroke-linecap="round" stroke-linejoin="round"/>
<path d="M264.485 184.64V184.64C265.316 183.691 266.873 184.314 266.826 185.576V185.576C266.811 185.955 266.957 186.323 267.228 186.588C267.499 186.853 267.87 186.99 268.248 186.967V186.967C269.504 186.885 270.166 188.432 269.243 189.29V189.29C268.966 189.549 268.81 189.913 268.815 190.293C268.82 190.672 268.985 191.032 269.27 191.283V191.283C270.215 192.117 269.594 193.68 268.336 193.632V193.632C267.957 193.619 267.591 193.766 267.327 194.039C267.063 194.311 266.926 194.682 266.951 195.06V195.06C267.032 196.321 265.492 196.985 264.636 196.059V196.059C264.38 195.781 264.017 195.624 263.638 195.629C263.259 195.635 262.901 195.8 262.652 196.085V196.085C261.821 197.034 260.264 196.411 260.311 195.149V195.149C260.326 194.77 260.18 194.402 259.909 194.137C259.638 193.872 259.267 193.735 258.889 193.758V193.758C257.633 193.84 256.971 192.293 257.894 191.435V191.435C258.171 191.176 258.327 190.812 258.322 190.433C258.317 190.053 258.152 189.693 257.867 189.442V189.442C256.922 188.608 257.543 187.045 258.801 187.093V187.093C259.18 187.106 259.546 186.959 259.81 186.687C260.074 186.414 260.211 186.043 260.186 185.665V185.665C260.105 184.405 261.645 183.74 262.501 184.666V184.666C262.757 184.944 263.12 185.101 263.499 185.096C263.878 185.091 264.236 184.925 264.485 184.64Z" fill="white" stroke="#3D3D3C" stroke-width="0.8" stroke-linecap="round" stroke-linejoin="round"/>
<ellipse cx="260.004" cy="231.696" rx="9.97152" ry="27.1692" transform="rotate(-80.076 260.004 231.696)" fill="#2369EF"/>
<mask id="mask12_803_2" style="mask-type:luminance" maskUnits="userSpaceOnUse" x="233" y="220" width="54" height="23">
<ellipse cx="260.004" cy="231.696" rx="9.97152" ry="27.1692" transform="rotate(-80.076 260.004 231.696)" fill="white"/>
</mask>
<g mask="url(#mask12_803_2)">
<ellipse cx="265.417" cy="230.236" rx="9.97152" ry="27.1692" transform="rotate(-80.076 265.417 230.236)" fill="#3782FF"/>
</g>
<ellipse cx="260.004" cy="231.696" rx="9.97152" ry="27.1692" transform="rotate(-80.076 260.004 231.696)" stroke="#3D3D3C" stroke-width="0.8" stroke-linecap="round" stroke-linejoin="round"/>
<ellipse cx="296.321" cy="211.22" rx="18.0345" ry="6.59197" transform="rotate(-48.779 296.321 211.22)" fill="#2369EF"/>
<mask id="mask13_803_2" style="mask-type:luminance" maskUnits="userSpaceOnUse" x="283" y="196" width="27" height="30">
<ellipse cx="296.321" cy="211.219" rx="18.0345" ry="6.59197" transform="rotate(-48.779 296.321 211.219)" fill="white"/>
</mask>
<g mask="url(#mask13_803_2)">
<ellipse cx="290.514" cy="210.103" rx="18.0345" ry="6.59197" transform="rotate(-48.779 290.514 210.103)" fill="#3782FF"/>
</g>
<ellipse cx="296.321" cy="211.22" rx="18.0345" ry="6.59197" transform="rotate(-48.779 296.321 211.22)" stroke="#3D3D3C" stroke-width="0.8" stroke-linecap="round" stroke-linejoin="round"/>
<path d="M301.064 279.571H256.181C252.911 279.571 250.26 276.92 250.26 273.65V245.849H306.985V273.65C306.985 276.92 304.334 279.571 301.064 279.571Z" fill="#ECEDEE"/>
<mask id="mask14_803_2" style="mask-type:luminance" maskUnits="userSpaceOnUse" x="250" y="245" width="57" height="35">
<path fill-rule="evenodd" clip-rule="evenodd" d="M301.064 279.571H256.181C252.911 279.571 250.26 276.92 250.26 273.65V245.849H306.985V273.65C306.985 276.92 304.334 279.571 301.064 279.571Z" fill="white"/>
</mask>
<g mask="url(#mask14_803_2)">
<path d="M258.046 106.84C258.046 111.563 251.683 111.563 251.683 116.286C251.683 121.009 258.046 121.009 258.046 125.732C258.046 130.455 251.683 130.455 251.683 135.178C251.683 139.902 258.046 139.902 258.046 144.625C258.046 149.348 251.683 149.348 251.683 154.072C251.683 158.795 258.046 158.795 258.046 163.518C258.046 168.241 251.683 168.241 251.683 172.964C251.683 177.688 258.046 177.688 258.046 182.411C258.046 187.134 251.683 187.134 251.683 191.857C251.683 196.58 258.046 196.58 258.046 201.304C258.046 206.027 251.683 206.027 251.683 210.75C251.683 215.473 258.046 215.473 258.046 220.197C258.046 224.92 251.683 224.92 251.683 229.643C251.683 234.366 258.046 234.366 258.046 239.09C258.046 243.813 251.683 243.813 251.683 248.536C251.683 253.26 258.046 253.26 258.046 257.983C258.046 262.706 251.683 262.706 251.683 267.429C251.683 272.153 258.046 272.153 258.046 276.876C258.046 281.6 251.683 281.6 251.683 286.323C251.683 291.046 258.046 291.046 258.046 295.77C258.046 300.493 251.683 300.493 251.683 305.217C251.683 309.94 258.046 309.94 258.046 314.663C258.046 319.386 251.683 319.386 251.683 324.11C251.683 328.833 258.046 328.833 258.046 333.556C258.046 338.28 251.683 338.28 251.683 343.003C251.683 347.727 258.046 347.727 258.046 352.45C258.046 357.173 251.683 357.173 251.683 361.897C251.683 366.62 258.046 366.62 258.046 371.344C258.046 376.067 251.683 376.067 251.683 380.791C251.683 385.514 258.046 385.514 258.046 390.238C258.046 394.961 251.683 394.961 251.683 399.685C251.683 404.409 258.046 404.409 258.046 409.132C258.046 413.856 251.683 413.856 251.683 418.58" stroke="#3D3D3C" stroke-width="0.8" stroke-linecap="round" stroke-linejoin="round"/>
<path d="M269.925 106.84C269.925 111.563 263.562 111.563 263.562 116.286C263.562 121.009 269.925 121.009 269.925 125.732C269.925 130.455 263.562 130.455 263.562 135.178C263.562 139.902 269.925 139.902 269.925 144.625C269.925 149.348 263.562 149.348 263.562 154.072C263.562 158.795 269.925 158.795 269.925 163.518C269.925 168.241 263.562 168.241 263.562 172.964C263.562 177.688 269.925 177.688 269.925 182.411C269.925 187.134 263.562 187.134 263.562 191.857C263.562 196.58 269.925 196.58 269.925 201.304C269.925 206.027 263.562 206.027 263.562 210.75C263.562 215.473 269.925 215.473 269.925 220.197C269.925 224.92 263.562 224.92 263.562 229.643C263.562 234.366 269.925 234.366 269.925 239.09C269.925 243.813 263.562 243.813 263.562 248.536C263.562 253.26 269.925 253.26 269.925 257.983C269.925 262.706 263.562 262.706 263.562 267.429C263.562 272.153 269.925 272.153 269.925 276.876C269.925 281.6 263.562 281.6 263.562 286.323C263.562 291.046 269.925 291.046 269.925 295.77C269.925 300.493 263.562 300.493 263.562 305.217C263.562 309.94 269.925 309.94 269.925 314.663C269.925 319.386 263.562 319.386 263.562 324.11C263.562 328.833 269.925 328.833 269.925 333.556C269.925 338.28 263.562 338.28 263.562 343.003C263.562 347.727 269.925 347.727 269.925 352.45C269.925 357.173 263.562 357.173 263.562 361.897C263.562 366.62 269.925 366.62 269.925 371.344C269.925 376.067 263.562 376.067 263.562 380.791C263.562 385.514 269.925 385.514 269.925 390.238C269.925 394.961 263.562 394.961 263.562 399.685C263.562 404.409 269.925 404.409 269.925 409.132C269.925 413.856 263.562 413.856 263.562 418.58" stroke="#3D3D3C" stroke-width="0.8" stroke-linecap="round" stroke-linejoin="round"/>
<path d="M281.804 106.84C281.804 111.563 275.441 111.563 275.441 116.286C275.441 121.009 281.804 121.009 281.804 125.732C281.804 130.455 275.441 130.455 275.441 135.178C275.441 139.902 281.804 139.902 281.804 144.625C281.804 149.348 275.441 149.348 275.441 154.072C275.441 158.795 281.804 158.795 281.804 163.518C281.804 168.241 275.441 168.241 275.441 172.964C275.441 177.688 281.804 177.688 281.804 182.411C281.804 187.134 275.441 187.134 275.441 191.857C275.441 196.58 281.804 196.58 281.804 201.304C281.804 206.027 275.441 206.027 275.441 210.75C275.441 215.473 281.804 215.473 281.804 220.197C281.804 224.92 275.441 224.92 275.441 229.643C275.441 234.366 281.804 234.366 281.804 239.09C281.804 243.813 275.441 243.813 275.441 248.536C275.441 253.26 281.804 253.26 281.804 257.983C281.804 262.706 275.441 262.706 275.441 267.429C275.441 272.153 281.804 272.153 281.804 276.876C281.804 281.6 275.441 281.6 275.441 286.323C275.441 291.046 281.804 291.046 281.804 295.77C281.804 300.493 275.441 300.493 275.441 305.217C275.441 309.94 281.804 309.94 281.804 314.663C281.804 319.386 275.441 319.386 275.441 324.11C275.441 328.833 281.804 328.833 281.804 333.556C281.804 338.28 275.441 338.28 275.441 343.003C275.441 347.727 281.804 347.727 281.804 352.45C281.804 357.173 275.441 357.173 275.441 361.897C275.441 366.62 281.804 366.62 281.804 371.344C281.804 376.067 275.441 376.067 275.441 380.791C275.441 385.514 281.804 385.514 281.804 390.238C281.804 394.961 275.441 394.961 275.441 399.685C275.441 404.409 281.804 404.409 281.804 409.132C281.804 413.856 275.441 413.856 275.441 418.58" stroke="#3D3D3C" stroke-width="0.8" stroke-linecap="round" stroke-linejoin="round"/>
<path d="M293.683 106.84C293.683 111.563 287.32 111.563 287.32 116.286C287.32 121.009 293.683 121.009 293.683 125.732C293.683 130.455 287.32 130.455 287.32 135.178C287.32 139.902 293.683 139.902 293.683 144.625C293.683 149.348 287.32 149.348 287.32 154.072C287.32 158.795 293.683 158.795 293.683 163.518C293.683 168.241 287.32 168.241 287.32 172.964C287.32 177.688 293.683 177.688 293.683 182.411C293.683 187.134 287.32 187.134 287.32 191.857C287.32 196.58 293.683 196.58 293.683 201.304C293.683 206.027 287.32 206.027 287.32 210.75C287.32 215.473 293.683 215.473 293.683 220.197C293.683 224.92 287.32 224.92 287.32 229.643C287.32 234.366 293.683 234.366 293.683 239.09C293.683 243.813 287.32 243.813 287.32 248.536C287.32 253.26 293.683 253.26 293.683 257.983C293.683 262.706 287.32 262.706 287.32 267.429C287.32 272.153 293.683 272.153 293.683 276.876C293.683 281.6 287.32 281.6 287.32 286.323C287.32 291.046 293.683 291.046 293.683 295.77C293.683 300.493 287.32 300.493 287.32 305.217C287.32 309.94 293.683 309.94 293.683 314.663C293.683 319.386 287.32 319.386 287.32 324.11C287.32 328.833 293.683 328.833 293.683 333.556C293.683 338.28 287.32 338.28 287.32 343.003C287.32 347.727 293.683 347.727 293.683 352.45C293.683 357.173 287.32 357.173 287.32 361.897C287.32 366.62 293.683 366.62 293.683 371.344C293.683 376.067 287.32 376.067 287.32 380.791C287.32 385.514 293.683 385.514 293.683 390.238C293.683 394.961 287.32 394.961 287.32 399.685C287.32 404.409 293.683 404.409 293.683 409.132C293.683 413.856 287.32 413.856 287.32 418.58" stroke="#3D3D3C" stroke-width="0.8" stroke-linecap="round" stroke-linejoin="round"/>
<path d="M305.562 106.84C305.562 111.563 299.199 111.563 299.199 116.286C299.199 121.009 305.562 121.009 305.562 125.732C305.562 130.455 299.199 130.455 299.199 135.178C299.199 139.902 305.562 139.902 305.562 144.625C305.562 149.348 299.199 149.348 299.199 154.072C299.199 158.795 305.562 158.795 305.562 163.518C305.562 168.241 299.199 168.241 299.199 172.964C299.199 177.688 305.562 177.688 305.562 182.411C305.562 187.134 299.199 187.134 299.199 191.857C299.199 196.58 305.562 196.58 305.562 201.304C305.562 206.027 299.199 206.027 299.199 210.75C299.199 215.473 305.562 215.473 305.562 220.197C305.562 224.92 299.199 224.92 299.199 229.643C299.199 234.366 305.562 234.366 305.562 239.09C305.562 243.813 299.199 243.813 299.199 248.536C299.199 253.26 305.562 253.26 305.562 257.983C305.562 262.706 299.199 262.706 299.199 267.429C299.199 272.153 305.562 272.153 305.562 276.876C305.562 281.6 299.199 281.6 299.199 286.323C299.199 291.046 305.562 291.046 305.562 295.77C305.562 300.493 299.199 300.493 299.199 305.217C299.199 309.94 305.562 309.94 305.562 314.663C305.562 319.386 299.199 319.386 299.199 324.11C299.199 328.833 305.562 328.833 305.562 333.556C305.562 338.28 299.199 338.28 299.199 343.003C299.199 347.727 305.562 347.727 305.562 352.45C305.562 357.173 299.199 357.173 299.199 361.897C299.199 366.62 305.562 366.62 305.562 371.344C305.562 376.067 299.199 376.067 299.199 380.791C299.199 385.514 305.562 385.514 305.562 390.238C305.562 394.961 299.199 394.961 299.199 399.685C299.199 404.409 305.562 404.409 305.562 409.132C305.562 413.856 299.199 413.856 299.199 418.58" stroke="#3D3D3C" stroke-width="0.8" stroke-linecap="round" stroke-linejoin="round"/>
<rect x="244.261" y="239.88" width="74.7119" height="15.6874" fill="#F5F6F7" stroke="#3D3D3C" stroke-width="0.8" stroke-linecap="round" stroke-linejoin="round"/>
</g>
<path fill-rule="evenodd" clip-rule="evenodd" d="M301.064 279.571H256.181C252.911 279.571 250.26 276.92 250.26 273.65V245.849H306.985V273.65C306.985 276.92 304.334 279.571 301.064 279.571Z" stroke="#3D3D3C" stroke-width="0.8" stroke-linecap="round" stroke-linejoin="round"/>
<path d="M276.457 194.455C276.92 195.709 276.442 197.248 275.351 198.015" stroke="#3D3D3C" stroke-width="0.8" stroke-linecap="round" stroke-linejoin="round"/>
<path d="M301.882 153.561C302.033 155.151 302.93 156.575 304.299 157.397" stroke="#3D3D3C" stroke-width="0.8" stroke-linecap="round" stroke-linejoin="round"/>
<path d="M297.961 207.431C297.725 208.673 296.945 209.744 295.835 210.35" stroke="#3D3D3C" stroke-width="0.8" stroke-linecap="round" stroke-linejoin="round"/>
<path d="M258.016 231.201C259.215 232.032 260.73 232.26 262.121 231.82" stroke="#3D3D3C" stroke-width="0.8" stroke-linecap="round" stroke-linejoin="round"/>
</g>
</svg>
